<svg xmlns="http://www.w3.org/2000/svg" viewBox="0 0 500 500"><defs><style>.cls-1{fill:#fff;}</style></defs><title>passw</title><g id="Modo_de_aislamiento" data-name="Modo de aislamiento"><path class="cls-1" d="M386.4,176.69H360.08v-33c0-60.74-49.49-110.19-110.26-110.19A110.32,110.32,0,0,0,139.64,143.71v33H113.2A37.64,37.64,0,0,0,75.7,214.2V428.64a37.71,37.71,0,0,0,37.5,37.84H386.4a37.83,37.83,0,0,0,37.9-37.84V214.2A37.76,37.76,0,0,0,386.4,176.69Zm-196.94-33a60.37,60.37,0,1,1,120.74,0v33H189.46Zm80.75,223.54V422a4.11,4.11,0,0,1-4.3,4H239.64a4,4,0,0,1-3.93-4V367.25a48.12,48.12,0,1,1,34.5,0Z"/></g></svg>