<svg id="Capa_1" data-name="Capa 1" xmlns="http://www.w3.org/2000/svg" viewBox="0 0 506.67 506.67"><defs><style>.cls-1{fill:#015aac;}</style></defs><title>asistencias</title><path class="cls-1" d="M229.42,183.23A30.16,30.16,0,0,0,222,203.85c0,8.25,3.3,14.84,7.43,20.62-15.67-3.3-30.52-9.9-42.89-20.62A121.57,121.57,0,0,1,229.42,183.23Zm47.83,41.24a30.15,30.15,0,0,0,7.42-20.62c0-8.25-3.3-14.84-7.42-20.62,15.67,3.3,30.51,9.9,42.88,20.62A121.44,121.44,0,0,1,277.25,224.47Zm-23.92,27.21a132.91,132.91,0,0,0,94-38.76,12.41,12.41,0,0,0,3.3-9.07c0-3.3-1.65-6.6-3.3-9.07a133.41,133.41,0,0,0-188,0,12.4,12.4,0,0,0-3.29,9.07c0,3.3,1.65,6.6,3.29,9.07A133,133,0,0,0,253.33,251.68Z"/><path class="cls-1" d="M385.29,385.29H121.38V121.38H385.29Zm8.24-288.65H113.13a16.54,16.54,0,0,0-16.49,16.49v280.4A16.54,16.54,0,0,0,113.13,410h280.4a16.54,16.54,0,0,0,16.5-16.5V113.13A16.54,16.54,0,0,0,393.53,96.64Z"/><path class="cls-1" d="M338.28,280.55H212.92a12.37,12.37,0,1,0,0,24.74H339.1a12.68,12.68,0,0,0,12.37-12.37C351.47,286.32,345.7,280.55,338.28,280.55Z"/><circle class="cls-1" cx="163.44" cy="292.92" r="12.37"/><path class="cls-1" d="M338.28,329.21H212.92a12.37,12.37,0,1,0,0,24.74H339.1a12.68,12.68,0,0,0,12.37-12.37C351.47,335,345.7,329.21,338.28,329.21Z"/><circle class="cls-1" cx="163.44" cy="341.58" r="12.37"/></svg>