<svg id="Capa_1" data-name="Capa 1" xmlns="http://www.w3.org/2000/svg" viewBox="0 0 506.67 506.67"><defs><style>.cls-1{fill:#015aac;}</style></defs><title>calendario</title><path class="cls-1" d="M169.57,313.74H337.1a12.08,12.08,0,0,0,0-24.16H169.57a12.08,12.08,0,1,0,0,24.16Z"/><path class="cls-1" d="M169.57,356.43H337.1a12.09,12.09,0,0,0,0-24.17H169.57a12.09,12.09,0,0,0,0,24.17Z"/><circle class="cls-1" cx="149.43" cy="146.21" r="12.08"/><circle class="cls-1" cx="112.38" cy="146.21" r="12.08"/><path class="cls-1" d="M382.2,382.2H124.47v-120H382.2ZM169.57,210.65H337.1a12.08,12.08,0,0,1,0,24.16H169.57a12.08,12.08,0,1,1,0-24.16Zm209.41-29a31.45,31.45,0,0,1-31.41-31.41V139a38.67,38.67,0,0,0-38.66-38.66H230.78A38.67,38.67,0,0,0,192.12,139v11.28a31.45,31.45,0,0,1-31.41,31.41H100.3V398.31c0,4.83,3.22,8.05,8.06,8.05h290c4.83,0,8.05-3.22,8.05-8.05V181.65Z"/></svg>