<svg id="Capa_1" data-name="Capa 1" xmlns="http://www.w3.org/2000/svg" viewBox="0 0 506.67 506.67"><defs><style>.cls-1{fill:#015aac;}</style></defs><title>comunicados</title><path class="cls-1" d="M286.8,94.37H219.87a50.35,50.35,0,0,0-50.2,50.2v125.5a50.35,50.35,0,0,0,50.2,50.2H286.8a50.35,50.35,0,0,0,50.2-50.2V144.57A50.35,50.35,0,0,0,286.8,94.37Zm0,25.1a24.65,24.65,0,0,1,25.1,25.1v125.5a24.66,24.66,0,0,1-25.1,25.1H219.87a24.65,24.65,0,0,1-25.1-25.1V144.57a24.64,24.64,0,0,1,25.1-25.1Z"/><path class="cls-1" d="M320.27,261.7H278.43a12.55,12.55,0,0,1,0-25.1h41.84a12.55,12.55,0,1,1,0,25.1Z"/><path class="cls-1" d="M320.27,178H278.43a12.55,12.55,0,0,1,0-25.1h41.84a12.55,12.55,0,1,1,0,25.1Z"/><path class="cls-1" d="M320.27,219.87H278.43a12.55,12.55,0,0,1,0-25.1h41.84a12.55,12.55,0,1,1,0,25.1Z"/><path class="cls-1" d="M228.23,261.7H186.4a12.55,12.55,0,0,1,0-25.1h41.83a12.55,12.55,0,0,1,0,25.1Z"/><path class="cls-1" d="M228.23,178H186.4a12.55,12.55,0,1,1,0-25.1h41.83a12.55,12.55,0,1,1,0,25.1Z"/><path class="cls-1" d="M228.23,219.87H186.4a12.55,12.55,0,1,1,0-25.1h41.83a12.55,12.55,0,1,1,0,25.1Z"/><path class="cls-1" d="M253.33,412.3a16.78,16.78,0,0,1-16.73-16.73V311.9a16.74,16.74,0,0,1,33.47,0v83.67A16.78,16.78,0,0,1,253.33,412.3Z"/><path class="cls-1" d="M303.53,412.3H203.13a16.74,16.74,0,0,1,0-33.47h100.4a16.74,16.74,0,1,1,0,33.47Z"/></svg>