<svg id="Capa_1" data-name="Capa 1" xmlns="http://www.w3.org/2000/svg" viewBox="0 0 506.67 506.67"><defs><style>.cls-1{fill:#015aac;}</style></defs><title>cursos</title><path class="cls-1" d="M350.15,252.87c-6.46-31.35-47-57.16-96.82-57.16s-91.28,24.89-96.81,57.16l-50.71-31.35,147.52-92.2,147.53,92.2Zm65.46-55.32-147.52-92.2c-4.61-2.77-9.22-4.61-14.76-4.61s-10.14,1.84-14.75,4.61L91.05,197.55c-8.29,4.61-12.9,13.83-12.9,23s4.61,18.44,12.9,23.05l64.55,38.73v59.93l14.75,5.53c0-1.84-.92-3.69-.92-5.53,0-10.14,5.53-19.36,13.83-27.66V261.17c0-17.52,30.43-37.8,70.07-37.8s70.08,20.28,70.08,36.88v54.4q13.83,12.45,13.83,27.66a11.71,11.71,0,0,1-.92,5.53l14.75-5.53V282.38l64.54-38.73c8.3-4.61,12.91-13.83,12.91-23.05S423.91,202.16,415.61,197.55Z"/><path class="cls-1" d="M253.33,278.69c-54.4,0-97.73,28.58-97.73,63.62s44.25,63.62,97.73,63.62c54.4,0,97.74-28.58,97.74-63.62S307.73,278.69,253.33,278.69Zm0,27.66c40.57,0,70.08,19.36,70.08,36s-30.43,36-70.08,36c-40.57,0-70.07-19.36-70.07-36S213.69,306.35,253.33,306.35Z"/></svg>