<svg id="Capa_1" data-name="Capa 1" xmlns="http://www.w3.org/2000/svg" viewBox="0 0 506.67 506.67"><defs><style>.cls-1{fill:#015aac;}</style></defs><title>inicio</title><path class="cls-1" d="M380.32,102.54h-254c-12.7,0-23.81,11.11-23.81,23.81v254a23.88,23.88,0,0,0,23.81,23.81h254a23.88,23.88,0,0,0,23.81-23.81v-254A23.88,23.88,0,0,0,380.32,102.54Zm0,23.81v254h-254v-254Z"/><path class="cls-1" d="M197,213.65H158.09c-4.76,0-7.93-3.17-7.93-7.94a7.49,7.49,0,0,1,7.93-7.93H197c4.77,0,7.94,3.17,7.94,7.93S201.75,213.65,197,213.65Z"/><path class="cls-1" d="M197,189.84H158.09c-4.76,0-7.93-3.17-7.93-7.94a7.49,7.49,0,0,1,7.93-7.93H197c4.77,0,7.94,3.17,7.94,7.93S201.75,189.84,197,189.84Z"/><path class="cls-1" d="M197,166H158.09c-4.76,0-7.93-3.17-7.93-7.94a7.49,7.49,0,0,1,7.93-7.93H197c4.77,0,7.94,3.17,7.94,7.93S201.75,166,197,166Z"/><rect class="cls-1" x="229.52" y="316.83" width="134.92" height="47.62" rx="7.94"/><path class="cls-1" d="M236.67,277.14H358.1a7.94,7.94,0,0,1,0,15.88H236.67a7.94,7.94,0,0,1,0-15.88Z"/><path class="cls-1" d="M228.73,261.27a7.5,7.5,0,0,1,7.94-7.94H358.1a7.94,7.94,0,0,1,0,15.88H236.67A7.5,7.5,0,0,1,228.73,261.27Z"/><rect class="cls-1" x="229.52" y="150.16" width="134.92" height="79.37" rx="7.94"/></svg>