<svg id="Capa_1" data-name="Capa 1" xmlns="http://www.w3.org/2000/svg" viewBox="0 0 506.67 506.67"><defs><style>.cls-1{fill:#015aac;}</style></defs><title>leer</title><path class="cls-1" d="M253.33,322.37c-44.43,0-87.28-24.6-121.4-69,34.12-44.43,77-69,121.4-69s87.29,24.6,121.4,69C340.62,297.77,297.77,322.37,253.33,322.37Zm0-161.87c-54.75,0-109.5,30.94-150.76,92.83,41.26,61.89,96,92.84,150.76,92.84s109.5-30.95,150.76-92.84C362.83,191.44,308.08,160.5,253.33,160.5Z"/><path class="cls-1" d="M262.85,213.66c-30.15-6.35-55.54,19-49.19,49.2A39.17,39.17,0,0,0,243.81,293C274,299.35,299.35,274,293,243.81A39.18,39.18,0,0,0,262.85,213.66Z"/></svg>