<svg id="Capa_1" data-name="Capa 1" xmlns="http://www.w3.org/2000/svg" viewBox="0 0 506.67 506.67"><defs><style>.cls-1{fill:#015aac;}</style></defs><title>mensajeria-padres</title><circle class="cls-1" cx="249.33" cy="290.15" r="16.01"/><path class="cls-1" d="M250.13,262.94a12.31,12.31,0,0,1-12-12v-4.8a31.41,31.41,0,0,1,20-29.61c8.81-3.2,15.21-12,14.41-21.6-.8-12-11.21-21.61-22.41-21.61-12,.8-21.61,10.4-21.61,22.41a12,12,0,0,1-24,0c0-24.81,20-45.62,44.81-46.42s46.42,19.21,47.22,44c.8,20-11.21,37.61-30.41,44.81-2.4.8-4.81,4-4.81,7.2v4.8A11.39,11.39,0,0,1,250.13,262.94Z"/><path class="cls-1" d="M254.93,327a12.9,12.9,0,0,1,7.2,2.4l55.22,40v-48c0-4.8,2.4-8.8,6.4-10.4,36-17.6,57.62-49.61,57.62-84,0-55.21-57.62-100-128-100s-128,44.82-128,100,57.62,100,128,100Zm74.43,77.62a13,13,0,0,1-7.21-2.4l-71.22-52c-82.42-.8-149.65-56-149.65-124s68-124,152.05-124,152,56,152,124c0,41.62-24,79.23-64.82,101.64v64c0,4.8-2.4,8.8-6.4,10.4C333.36,404.58,331.76,404.58,329.36,404.58Z"/><circle class="cls-1" cx="249.33" cy="290.15" r="16.01"/><path class="cls-1" d="M250.13,262.94a12.31,12.31,0,0,1-12-12v-4.8a31.41,31.41,0,0,1,20-29.61c8.81-3.2,15.21-12,14.41-21.6-.8-12-11.21-21.61-22.41-21.61-12,.8-21.61,10.4-21.61,22.41a12,12,0,0,1-24,0c0-24.81,20-45.62,44.81-46.42s46.42,19.21,47.22,44c.8,20-11.21,37.61-30.41,44.81-2.4.8-4.81,4-4.81,7.2v4.8A11.39,11.39,0,0,1,250.13,262.94Z"/><path class="cls-1" d="M254.93,327a12.9,12.9,0,0,1,7.2,2.4l55.22,40v-48c0-4.8,2.4-8.8,6.4-10.4,36-17.6,57.62-49.61,57.62-84,0-55.21-57.62-100-128-100s-128,44.82-128,100,57.62,100,128,100Zm74.43,77.62a13,13,0,0,1-7.21-2.4l-71.22-52c-82.42-.8-149.65-56-149.65-124s68-124,152.05-124,152,56,152,124c0,41.62-24,79.23-64.82,101.64v64c0,4.8-2.4,8.8-6.4,10.4C333.36,404.58,331.76,404.58,329.36,404.58Z"/></svg>