<svg id="Capa_1" data-name="Capa 1" xmlns="http://www.w3.org/2000/svg" viewBox="0 0 506.67 506.67"><defs><style>.cls-1{fill:#015aac;}</style></defs><title>notificaciones</title><path class="cls-1" d="M385.29,385.29H123.85c19-40.41,60.21-69.28,108-69.28h5v27.22c0,4.95,5.77,7.42,9.9,4.12l49.48-49.48a5.52,5.52,0,0,0,0-8.25l-49.48-49.48c-3.3-3.3-9.9-.83-9.9,4.12v23.92h-5a118.52,118.52,0,0,0-110.51,75.87V195.6h113a40.83,40.83,0,0,0,41.24-41.23v-33H385.29ZM250.86,121.38v33a16.54,16.54,0,0,1-16.5,16.49H120.55V121.38ZM393.53,96.64H117.26a20.42,20.42,0,0,0-20.62,20.62V393.53A16.54,16.54,0,0,0,113.13,410h280.4a16.54,16.54,0,0,0,16.5-16.5V113.13A16.54,16.54,0,0,0,393.53,96.64Z"/></svg>