<svg id="Capa_1" data-name="Capa 1" xmlns="http://www.w3.org/2000/svg" viewBox="0 0 506.67 506.67"><defs><style>.cls-1{fill:#fff;}</style></defs><title>boletasdenotas copia</title><path class="cls-1" d="M253.33,235.05A134.72,134.72,0,0,1,158.61,196a12.34,12.34,0,0,1,17.45-17.45c42.37,42.38,111.34,42.38,154.55,0A12.34,12.34,0,1,1,348.06,196,134.73,134.73,0,0,1,253.33,235.05Z"/><path class="cls-1" d="M386.28,95.46H120.39a25,25,0,0,0-24.93,24.93V386.28a25,25,0,0,0,24.93,24.92H386.28a25,25,0,0,0,24.92-24.92V120.39A25,25,0,0,0,386.28,95.46Zm0,24.93V386.28H120.39V120.39Z"/><path class="cls-1" d="M338.92,305.68H212.62a12.47,12.47,0,0,1,0-24.93H339.75a12.78,12.78,0,0,1,12.46,12.47C352.21,299.86,346.39,305.68,338.92,305.68Z"/><circle class="cls-1" cx="162.77" cy="293.22" r="12.46"/><path class="cls-1" d="M338.92,354.7H212.62a12.46,12.46,0,0,1,0-24.92H339.75a12.78,12.78,0,0,1,12.46,12.46C351.38,348.89,346.39,354.7,338.92,354.7Z"/><circle class="cls-1" cx="162.77" cy="342.24" r="12.46"/></svg>