<svg id="Capa_1" data-name="Capa 1" xmlns="http://www.w3.org/2000/svg" viewBox="0 0 506.67 506.67"><defs><style>.cls-1{fill:#fff;}</style></defs><title>citas copia</title><path class="cls-1" d="M236.39,389.08v4.16a16.66,16.66,0,0,1-16.62,16.61H119.23a16.66,16.66,0,0,1-16.62-16.61v-4.16a16.67,16.67,0,0,1,16.62-16.62H219.77C228.91,371.63,236.39,379.11,236.39,389.08Z"/><path class="cls-1" d="M377.64,352.52l-4.16,4.16c-2.49,2.49-7.48,2.49-10.8,0l-80.6-80.6,15-15,80.6,80.6C380.13,345,380.13,350,377.64,352.52Zm-137.1-89.74L209.8,232a15.3,15.3,0,0,1-4.16-10,13.74,13.74,0,0,1,4.16-10l25.75-25.76a15.36,15.36,0,0,1,10-4.15,13.75,13.75,0,0,1,10,4.15l30.75,30.75a15.32,15.32,0,0,1,4.15,10,13.79,13.79,0,0,1-4.15,10l-25.76,25.75C255.5,268.6,246.36,268.6,240.54,262.78Zm-34.9,60.66-3.32,3.32a6.31,6.31,0,0,1-3.33,1.67c-.83,0-1.66,0-3.32-1.67l-49.85-49.85a6.29,6.29,0,0,1-1.66-3.32c0-.83,0-1.67,1.66-3.33l3.32-3.32a6.29,6.29,0,0,1,3.32-1.66c.84,0,1.67,0,3.33,1.66l49.85,49.85A5.06,5.06,0,0,1,205.64,323.44Zm-20.77-62.32L194,252l23.26,23.27-9.14,9.14ZM290.39,125.69l3.33-3.33A6.29,6.29,0,0,1,297,120.7c.83,0,1.66,0,3.32,1.66l49.86,49.86a6.29,6.29,0,0,1,1.66,3.32c0,.83,0,1.66-1.66,3.32l-3.33,3.33a6.29,6.29,0,0,1-3.32,1.66c-.83,0-1.66,0-3.32-1.66l-49.86-49.86a6.29,6.29,0,0,1-1.66-3.32C289.56,128.18,289.56,126.52,290.39,125.69Zm18.28,59-9.14,9.14-23.26-23.27,9.14-9.13ZM395.09,325.1l-82.26-82.26c2.49-5,3.32-10,3.32-15.78a33.4,33.4,0,0,0-2.49-12.47l12.46-12.46c5,4.15,10.8,5.82,17.45,5.82,7.48,0,15-3.33,20.77-8.31l3.33-3.33A28.85,28.85,0,0,0,376,175.54c0-7.48-3.33-15-8.31-20.77l-49.86-49.86c-10.8-10.8-30.74-10.8-41.54,0l-3.33,3.33a28.84,28.84,0,0,0-8.3,20.77c0,5,1.66,10,3.32,14.13l-15,15c-2.49-.83-5-.83-8.31-.83a39.56,39.56,0,0,0-28.25,11.63l-25.75,25.76a39.57,39.57,0,0,0-11.64,28.25,31.21,31.21,0,0,0,.83,8.31l-14.95,15c-10.8-5.82-25.76-4.16-34.9,5l-3.32,3.33a28.81,28.81,0,0,0-8.31,20.77c0,7.48,3.32,14.95,8.31,20.77l49.85,49.85a28.83,28.83,0,0,0,20.77,8.31c7.48,0,15-3.32,20.78-8.31l3.32-3.32c10.8-10.8,11.63-26.59,2.49-38.22l12.46-12.46a33.4,33.4,0,0,0,12.47,2.49,41.82,41.82,0,0,0,10-1.66l83.92,83.92a31.37,31.37,0,0,0,22.43,9.14,32.15,32.15,0,0,0,22.44-9.14l4.15-4.16C407.55,357.51,407.55,337.57,395.09,325.1Z"/></svg>