<svg id="Capa_1" data-name="Capa 1" xmlns="http://www.w3.org/2000/svg" viewBox="0 0 506.67 506.67"><defs><style>.cls-1{fill:#fff;}</style></defs><title>enfermeria copia</title><path class="cls-1" d="M253.33,290.72c-43.2,0-78.93-35.72-78.93-78.93V178.55a12.46,12.46,0,1,1,24.92,0v33.24a54,54,0,1,0,108,0V178.55a12.47,12.47,0,0,1,24.93,0v33.24C332.27,255,296.54,290.72,253.33,290.72Z"/><path class="cls-1" d="M269.12,362.18H237.55A63.12,63.12,0,0,1,174.4,299a12.46,12.46,0,1,1,24.92,0c0,20.78,17.45,38.22,38.23,38.22h31.57c20.77,0,38.22-17.44,38.22-38.22a12.47,12.47,0,0,1,24.93,0A63.12,63.12,0,0,1,269.12,362.18Z"/><path class="cls-1" d="M262.47,95.46H243.36c-64,0-115.49,48.2-115.49,112.17v33.24c0,6.65,4.15,12.46,11.63,12.46H201a70.34,70.34,0,0,1-12.47-24.92H153.63V207.63c0-50.68,39.88-87.24,90.56-87.24H263.3c50.69,0,90.57,36.56,90.57,87.24v20.78H318.14a70.16,70.16,0,0,1-12.46,24.92h61.49c6.64,0,11.63-5.81,11.63-12.46V207.63C378,143.66,326.45,95.46,262.47,95.46Z"/><path class="cls-1" d="M303.19,279.09V247.52c-6.65,7.48-15,14.12-24.93,17.45v25.75a12.78,12.78,0,0,0,12.46,12.47c47.36,0,88.08,36.56,94.73,83.09H121.22c6.65-46.53,47.36-83.09,94.72-83.09a12.79,12.79,0,0,0,12.47-12.47V265a67.52,67.52,0,0,1-24.93-17.45v31.57c-59.83,6.65-108,59-108,119.65a12.78,12.78,0,0,0,12.47,12.46H398.74a12.77,12.77,0,0,0,12.46-12.46C411.2,337.25,363,285.74,303.19,279.09Z"/></svg>