<svg id="Capa_1" data-name="Capa 1" xmlns="http://www.w3.org/2000/svg" viewBox="0 0 506.67 506.67"><defs><style>.cls-1{fill:#fff;}</style></defs><title>ficha-matricula copia</title><path class="cls-1" d="M386.28,386.28H120.39V120.39H386.28Zm8.31-290.82H112.08a16.67,16.67,0,0,0-16.62,16.62V394.59a16.66,16.66,0,0,0,16.62,16.61H394.59a16.65,16.65,0,0,0,16.61-16.61V112.08A16.66,16.66,0,0,0,394.59,95.46Z"/><path class="cls-1" d="M278.26,272.44h61.49a12.46,12.46,0,0,0,0-24.92H278.26A12.77,12.77,0,0,0,265.8,260,12.23,12.23,0,0,0,278.26,272.44Z"/><path class="cls-1" d="M278.26,220.93h61.49a12.47,12.47,0,0,0,0-24.93H278.26a12.78,12.78,0,0,0-12.46,12.46A12.24,12.24,0,0,0,278.26,220.93Z"/><path class="cls-1" d="M338.92,313.16H162.77a12.47,12.47,0,1,0,0,24.93h177a12.78,12.78,0,0,0,12.46-12.47C352.21,319,346.39,313.16,338.92,313.16Z"/><path class="cls-1" d="M161.93,274.11h69c10,0,15.79-10,12.46-19.11a48.84,48.84,0,0,0-34.9-29.92c9.14-5,15.79-15.78,15.79-28.25,0-17.45-12.46-31.57-28.25-31.57s-28.25,14.12-28.25,31.57c0,12.47,6.65,23.27,15.79,28.25-15.79,4.16-29.08,15-34.9,29.92C146.15,264.14,152.79,274.11,161.93,274.11Z"/></svg>