<svg id="Capa_1" data-name="Capa 1" xmlns="http://www.w3.org/2000/svg" viewBox="0 0 506.67 506.67"><defs><style>.cls-1{fill:#fff;}</style></defs><title>fichaderegistro</title><path class="cls-1" d="M225.5,94.22c-72.29,0-131.28,59-131.28,131.28s59,131.28,131.28,131.28,131.28-59,131.28-131.28A131,131,0,0,0,225.5,94.22Zm0,24.92A106.36,106.36,0,1,1,119.14,225.5C119.14,166.5,167.34,119.14,225.5,119.14Z"/><path class="cls-1" d="M387.52,412.45A23.92,23.92,0,0,1,370.07,405l-67.3-67.3c-10-10-10-25.76,0-34.9,10-10,25.76-10,34.9,0L405,370.08c10,10,10,25.75,0,34.89A25.31,25.31,0,0,1,387.52,412.45Z"/><path class="cls-1" d="M155.7,319.39l-24.09-5c9.14-44,49-76.44,93.89-76.44s83.92,31.58,93.89,75.61l-24.1,5a71.93,71.93,0,0,0-69.79-55.67C191.43,262.89,162.35,287,155.7,319.39Z"/><path class="cls-1" d="M223,166.5a35.73,35.73,0,1,0,35.72,35.73A35.46,35.46,0,0,0,223,166.5Zm0,96.39a61,61,0,0,1-60.66-60.66c0-33.23,27.42-60.65,60.66-60.65a61,61,0,0,1,60.65,60.65C283.66,235.47,256.24,262.89,223,262.89Z"/></svg>