<svg id="Capa_1" data-name="Capa 1" xmlns="http://www.w3.org/2000/svg" viewBox="0 0 506.67 506.67"><defs><style>.cls-1{fill:#fff;}</style></defs><title>google-classroom</title><path class="cls-1" d="M238.38,314.82,293.22,260c3.32-3.32,3.32-10,0-13.29l-54.84-54.84a9.27,9.27,0,0,0-15.79,6.64V308.17A9.27,9.27,0,0,0,238.38,314.82Z"/><path class="cls-1" d="M253.33,95.46a12.47,12.47,0,0,0,0,24.93c73.12,0,132.95,59.82,132.95,132.94S326.45,386.28,253.33,386.28,120.39,326.45,120.39,253.33c0-29.08,9.14-55.67,25.76-78.93,4.15-5.82,3.32-13.3-2.5-17.45s-13.29-3.32-17.44,2.49a158,158,0,1,0,127.12-64Z"/></svg>