<svg id="Capa_1" data-name="Capa 1" xmlns="http://www.w3.org/2000/svg" viewBox="0 0 506.67 506.67"><defs><style>.cls-1{fill:#fff;}</style></defs><title>inicio copia</title><path class="cls-1" d="M386.28,95.46H120.39c-13.3,0-24.93,11.64-24.93,24.93V386.28a25,25,0,0,0,24.93,24.92H386.28a25,25,0,0,0,24.92-24.92V120.39A25,25,0,0,0,386.28,95.46Zm0,24.93V386.28H120.39V120.39Z"/><path class="cls-1" d="M194.34,211.79H153.63c-5,0-8.31-3.33-8.31-8.31s3.32-8.31,8.31-8.31h40.71c5,0,8.31,3.32,8.31,8.31S199.32,211.79,194.34,211.79Z"/><path class="cls-1" d="M194.34,186.86H153.63c-5,0-8.31-3.32-8.31-8.31s3.32-8.31,8.31-8.31h40.71c5,0,8.31,3.33,8.31,8.31S199.32,186.86,194.34,186.86Z"/><path class="cls-1" d="M194.34,161.93H153.63c-5,0-8.31-3.32-8.31-8.3s3.32-8.31,8.31-8.31h40.71c5,0,8.31,3.32,8.31,8.31S199.32,161.93,194.34,161.93Z"/><rect class="cls-1" x="228.41" y="319.81" width="141.25" height="49.85" rx="8.31"/><path class="cls-1" d="M235.88,278.26H363c5,0,8.31,3.32,8.31,8.31s-3.32,8.31-8.31,8.31H235.88c-5,0-8.31-3.33-8.31-8.31S230.9,278.26,235.88,278.26Z"/><path class="cls-1" d="M227.57,261.64c0-5,3.33-8.31,8.31-8.31H363c5,0,8.31,3.33,8.31,8.31S368,270,363,270H235.88C230.9,270,227.57,266.63,227.57,261.64Z"/><rect class="cls-1" x="228.41" y="145.32" width="141.25" height="83.09" rx="8.31"/></svg>