<svg id="Capa_1" data-name="Capa 1" xmlns="http://www.w3.org/2000/svg" viewBox="0 0 506.67 506.67"><defs><style>.cls-1{fill:#fff;}</style></defs><title>mensajeria-padres copia</title><circle class="cls-1" cx="249.18" cy="291.55" r="16.62"/><path class="cls-1" d="M250,263.31a12.78,12.78,0,0,1-12.46-12.47v-5a32.6,32.6,0,0,1,20.77-30.75c9.14-3.32,15.78-12.46,14.95-22.43-.83-12.46-11.63-22.44-23.26-22.44-12.46.84-22.44,10.81-22.44,23.27a12.46,12.46,0,0,1-24.92,0c0-25.76,20.77-47.36,46.53-48.19s48.19,19.94,49,45.7c.83,20.77-11.63,39-31.57,46.53-2.5.83-5,4.15-5,7.48v5A11.84,11.84,0,0,1,250,263.31Z"/><path class="cls-1" d="M255,329.78a13.39,13.39,0,0,1,7.48,2.49l57.34,41.54V324c0-5,2.49-9.14,6.64-10.8,37.39-18.28,59.83-51.52,59.83-87.25,0-57.33-59.83-103.86-132.95-103.86S120.39,168.58,120.39,225.91s59.82,103.87,132.94,103.87Zm77.28,80.59a13.42,13.42,0,0,1-7.48-2.49l-74-54C165.26,353,95.46,295.71,95.46,225.08S166.09,96.29,253.33,96.29,411.2,154.46,411.2,225.08c0,43.21-24.92,82.26-67.3,105.53v66.47c0,5-2.49,9.14-6.65,10.8C336.42,410.37,334.76,410.37,332.27,410.37Z"/><circle class="cls-1" cx="249.18" cy="291.55" r="16.62"/><path class="cls-1" d="M250,263.31a12.78,12.78,0,0,1-12.46-12.47v-5a32.6,32.6,0,0,1,20.77-30.75c9.14-3.32,15.78-12.46,14.95-22.43-.83-12.46-11.63-22.44-23.26-22.44-12.46.84-22.44,10.81-22.44,23.27a12.46,12.46,0,0,1-24.92,0c0-25.76,20.77-47.36,46.53-48.19s48.19,19.94,49,45.7c.83,20.77-11.63,39-31.57,46.53-2.5.83-5,4.15-5,7.48v5A11.84,11.84,0,0,1,250,263.31Z"/><path class="cls-1" d="M255,329.78a13.39,13.39,0,0,1,7.48,2.49l57.34,41.54V324c0-5,2.49-9.14,6.64-10.8,37.39-18.28,59.83-51.52,59.83-87.25,0-57.33-59.83-103.86-132.95-103.86S120.39,168.58,120.39,225.91s59.82,103.87,132.94,103.87Zm77.28,80.59a13.42,13.42,0,0,1-7.48-2.49l-74-54C165.26,353,95.46,295.71,95.46,225.08S166.09,96.29,253.33,96.29,411.2,154.46,411.2,225.08c0,43.21-24.92,82.26-67.3,105.53v66.47c0,5-2.49,9.14-6.65,10.8C336.42,410.37,334.76,410.37,332.27,410.37Z"/></svg>