<svg id="Capa_1" data-name="Capa 1" xmlns="http://www.w3.org/2000/svg" viewBox="0 0 506.67 506.67"><defs><style>.cls-1{fill:#fff;}</style></defs><title>pensiones</title><path class="cls-1" d="M179.38,367.17a12.12,12.12,0,0,1-10.8-5.82c-4.15-5.82-2.49-13.29,3.32-17.45L225.08,309a12.58,12.58,0,0,1,15.79,1.67L253.33,324l43.21-25.76a12.68,12.68,0,1,1,13.29,21.61l-51.51,30.74a11.79,11.79,0,0,1-15.79-2.49l-11.63-13.3-44,29.08C184.37,367.17,181.88,367.17,179.38,367.17Z"/><polygon class="cls-1" points="311.5 341.41 341.41 287.4 279.09 288.23 311.5 341.41"/><circle class="cls-1" cx="146.15" cy="142.82" r="12.46"/><circle class="cls-1" cx="107.93" cy="142.82" r="12.46"/><path class="cls-1" d="M386.28,386.28H120.39V261.64H386.28ZM166.92,211.79H339.75a12.47,12.47,0,0,1,0,24.93H166.92a12.47,12.47,0,0,1,0-24.93Zm216-33.24C365.5,178.55,353,164.43,353,147V135.35c0-22.44-19.94-39.89-42.38-39.89H230.07c-22.44,0-43.21,18.28-43.21,39.89V147c0,17.45-11.63,31.57-29.08,31.57H95.46V386.28a24.48,24.48,0,0,0,24.93,24.92H386.28a24.48,24.48,0,0,0,24.92-24.92V178.55Z"/></svg>