<svg id="Capa_1" data-name="Capa 1" xmlns="http://www.w3.org/2000/svg" viewBox="0 0 506.67 506.67"><defs><style>.cls-1{fill:#fff;}</style></defs><title>servicioseducativos copia</title><path class="cls-1" d="M340.58,252.92c-5.82-28.25-42.38-51.52-87.25-51.52s-82.26,22.44-87.24,51.52l-45.7-28.25,132.94-83.09,132.95,83.09Zm59-49.86L266.63,120c-4.16-2.49-8.31-4.15-13.3-4.15S244.19,117.48,240,120L107.09,203.06c-7.47,4.16-11.63,12.47-11.63,20.78s4.16,16.61,11.63,20.77l58.17,34.9v54l13.29,5c0-1.66-.83-3.32-.83-5,0-9.14,5-17.45,12.46-24.93V260.4c0-15.79,27.42-34.07,63.15-34.07s63.15,18.28,63.15,33.24v49q12.47,11.22,12.46,24.93a10.53,10.53,0,0,1-.83,5l13.3-5v-54l58.16-34.9c7.48-4.16,11.63-12.46,11.63-20.77S407.05,207.22,399.57,203.06Z"/><path class="cls-1" d="M253.33,276.18c-49,0-88.07,25.76-88.07,57.34s39.88,57.33,88.07,57.33c49,0,88.08-25.76,88.08-57.33S302.36,276.18,253.33,276.18Zm0,24.93c36.56,0,63.15,17.45,63.15,32.41s-27.42,32.4-63.15,32.4c-36.56,0-63.15-17.45-63.15-32.4S217.6,301.11,253.33,301.11Z"/></svg>